<svg width="20" height="20" viewBox="0 0 20 20" fill="none" xmlns="http://www.w3.org/2000/svg">
<circle cx="9.95122" cy="9.95122" r="9.45122" fill="#D9D9D9" stroke="#CE9205"/>
<path d="M10.0489 18.0098C12.1603 18.0098 14.1852 17.171 15.6781 15.6781C17.1711 14.1851 18.0099 12.1602 18.0099 10.0488C18.0099 7.93743 17.1711 5.91253 15.6781 4.41956C14.1852 2.92658 12.1603 2.08784 10.0489 2.08784C7.93749 2.08784 5.91259 2.92658 4.41962 4.41956C2.92664 5.91253 2.0879 7.93743 2.0879 10.0488C2.0879 12.1602 2.92664 14.1851 4.41962 15.6781C5.91259 17.171 7.93749 18.0098 10.0489 18.0098ZM10.0489 0.0975952C11.3557 0.0975952 12.6497 0.354991 13.857 0.855087C15.0644 1.35518 16.1614 2.08818 17.0855 3.01224C18.0095 3.9363 18.7425 5.03331 19.2426 6.24065C19.7427 7.44799 20.0001 8.742 20.0001 10.0488C20.0001 12.688 18.9517 15.2192 17.0855 17.0854C15.2192 18.9516 12.6881 20 10.0489 20C4.54585 20 0.0976562 15.522 0.0976562 10.0488C0.0976563 7.40959 1.14609 4.87846 3.0123 3.01224C4.87852 1.14602 7.40965 0.0975952 10.0489 0.0975952ZM10.5464 5.0732V10.2976L15.0245 12.9546L14.2781 14.1786L9.05375 11.0439V5.0732H10.5464Z" fill="#CE9205"/>
</svg>
