<svg width="21" height="20" viewBox="0 0 21 20" fill="none" xmlns="http://www.w3.org/2000/svg">
<circle cx="10.6895" cy="10" r="9.5" fill="#D9D9D9" stroke="#2EC43D"/>
<path d="M10.7539 0.769226C5.62309 0.769226 1.45898 4.93333 1.45898 10.0641C1.45898 15.1949 5.62309 19.359 10.7539 19.359C15.8846 19.359 20.0487 15.1949 20.0487 10.0641C20.0487 4.93333 15.8846 0.769226 10.7539 0.769226ZM8.23495 14.0516L4.89809 10.7147C4.81203 10.6287 4.74377 10.5265 4.6972 10.4141C4.65063 10.3017 4.62666 10.1811 4.62666 10.0594C4.62666 9.93775 4.65063 9.81724 4.6972 9.70481C4.74377 9.59237 4.81203 9.49021 4.89809 9.40416C4.98414 9.31811 5.0863 9.24985 5.19874 9.20327C5.31117 9.1567 5.43168 9.13273 5.55338 9.13273C5.67507 9.13273 5.79558 9.1567 5.90801 9.20327C6.02045 9.24985 6.12261 9.31811 6.20866 9.40416L8.89488 12.0811L15.2898 5.68621C15.4635 5.51242 15.6993 5.41478 15.945 5.41478C16.1908 5.41478 16.4265 5.51242 16.6003 5.68621C16.7741 5.86001 16.8718 6.09572 16.8718 6.3415C16.8718 6.58728 16.7741 6.823 16.6003 6.99679L9.54552 14.0516C9.45953 14.1378 9.35739 14.2061 9.24495 14.2528C9.13251 14.2994 9.01197 14.3234 8.89023 14.3234C8.7685 14.3234 8.64796 14.2994 8.53552 14.2528C8.42308 14.2061 8.32094 14.1378 8.23495 14.0516Z" fill="#2EC33D"/>
</svg>
